<svg width="76" height="38" viewBox="0 0 76 38" fill="none" xmlns="http://www.w3.org/2000/svg">
<g clip-path="url(#clip0_216_9)">
<path d="M0 24.6V17.1H7.5V24.6H0Z" fill="#E20074"/>
<path d="M23 24.6V17.1H30.5V24.6H23Z" fill="#E20074"/>
<path d="M45.6001 24.6V17.1H53.1001V24.6H45.6001Z" fill="#E20074"/>
<path d="M68.2 24.6V17.1H75.7V24.6H68.2Z" fill="#E20074"/>
<path d="M30.1 0H0.4L0 13.1L2 13.4C2.4 9.5 3.4 6.7 5 4.8C6.8 2.8 9.2 1.8 12.3 1.7V29.2C12.3 31.6 12 33.2 11.3 33.9C10.7 34.5 9.7 34.9 8.3 35C7.9 35 7.2 35.1 6.1 35.1V37.2H24.5V35.1C23.5 35.1 22.8 35.1 22.3 35C20.9 34.9 19.9 34.5 19.3 33.9C18.6 33.2 18.3 31.6 18.3 29.2V1.8C21.4 1.9 23.8 2.9 25.6 4.9C27.3 6.8 28.3 9.6 28.6 13.5L30.6 13.2L30.1 0Z" fill="#E20074"/>
</g>
<defs>
<clipPath id="clip0_216_9">
<rect width="75.7" height="37.2" fill="white"/>
</clipPath>
</defs>
</svg>
